# xmcd CD database file
#
# Track frame offsets:
#	150
#	29130
#	56407
#	77387
#	105092
#	125797
#	161455
#
# Disc length: 2529 seconds
#
# Revision: 0
# Processed by: cddbd v1.5.2PL0 Copyright (c) Steve Scherf et al.
# Submitted via: CDex 1.51
#
DISCID=4d09df07
DTITLE=Christa Grix Trio - Freefall
DYEAR=1996
DGENRE=Jazz
TTITLE0=Days of Wine and Roses
TTITLE1=I'll Remember April
TTITLE2=A Time for Love
TTITLE3=Lullaby for Luke
TTITLE4=I Remember Clifford
TTITLE5=Recado Bossa Nova
TTITLE6=Invitation
EXTD=YEAR: 1996
EXTT0=
EXTT1=
EXTT2=
EXTT3=
EXTT4=
EXTT5=
EXTT6=
PLAYORDER=
